<?xml version="1.0" encoding="UTF-8" standalone="no"?>
<!DOCTYPE svg PUBLIC "-//W3C//DTD SVG 1.1//EN" "http://www.w3.org/Graphics/SVG/1.1/DTD/svg11.dtd">
<svg xmlns="http://www.w3.org/2000/svg">
<metadata/>
<defs>
<font id="syntaxbold" horiz-adv-x="1138">
<font-face units-per-em="2048" ascent="1552" descent="-496"/>
<missing-glyph horiz-adv-x="569"/>
<glyph horiz-adv-x="2048"/>
<glyph horiz-adv-x="2048"/>
<glyph unicode="" horiz-adv-x="2048"/>
<glyph unicode=" " horiz-adv-x="569"/>
<glyph unicode="	" horiz-adv-x="569"/>
<glyph unicode=" " horiz-adv-x="569"/>
<glyph unicode="!" horiz-adv-x="679" d="M211 0v254h250v-254h-250zM211 399l6 1018h250l-6 -1018h-250z"/>
<glyph unicode="&quot;" horiz-adv-x="681" d="M63 897v520h213v-520h-213zM406 897v520h212v-520h-212z"/>
<glyph unicode="#" d="M68 401v177h206l35 241h-180v176h205l57 402h182l-57 -402h209l57 402h183l-58 -402h164v-176h-188l-35 -241h162v-177h-189l-57 -401h-180l57 401h-211l-57 -401h-180l57 401h-182zM455 578h211l34 241h-211z"/>
<glyph unicode="$" d="M133 1034q0 156 104.5 268t278.5 138l2 145h115l-2 -141q184 -6 375 -117l-111 -190q-63 35 -89 48t-78 29.5t-99 16.5l-4 -414q138 -63 191 -98q151 -101 170 -266q3 -26 3 -54q0 -159 -103.5 -275t-269.5 -144l-2 -189h-114l2 182q-189 3 -367 107l103 203 q57 -39 126 -68t123 -29l17 2l4 412q-10 4 -30 13q-46 20 -70.5 31t-67 34t-66.5 43t-54.5 53.5t-47 68.5t-28 84.5t-11.5 106.5zM395 1042q0 -100 117 -165v335q-54 -23 -85.5 -66.5t-31.5 -103.5zM618 219q109 50 109 170q0 52 -25.5 88.5t-78.5 65.5z"/>
<glyph unicode="%" horiz-adv-x="2048" d="M209 1073q0 141 101 242.5t243 101.5q141 0 242.5 -101.5t101.5 -242.5t-101.5 -242.5t-242.5 -101.5q-142 0 -243 101.5t-101 242.5zM410 1073q0 -84 39 -134t104 -50t104 50t39 134t-39 134t-104 50t-104 -50t-39 -134zM514 0l909 1456l113 -67l-907 -1452zM1151 315 q0 141 101 242.5t243 101.5q141 0 242.5 -101.5t101.5 -242.5t-101.5 -242.5t-242.5 -101.5q-142 0 -243 101.5t-101 242.5zM1352 315q0 -84 39 -134t104 -50t104 50t39 134t-39 134.5t-104 50.5t-104 -50.5t-39 -134.5z"/>
<glyph unicode="&amp;" horiz-adv-x="1478" d="M147 408q0 138 81.5 253t207.5 195q-56 70 -85 135t-29 146q0 142 95.5 225.5t237.5 83.5q129 0 220.5 -80t91.5 -209q0 -102 -57.5 -181t-159.5 -147l292 -319q29 102 37 293h226q3 -270 -95 -471l201 -226l-172 -151l-164 182q-93 -85 -196 -125.5t-232 -40.5 q-86 0 -159 18t-123 47.5t-90 69.5t-63 80.5t-38.5 84t-21 76.5t-5.5 61zM410 446q0 -115 74 -188.5t184 -73.5q67 0 135.5 29t122.5 88l-359 401q-157 -126 -157 -256zM535 1143q0 -70 90 -168q129 94 129 176q0 46 -28.5 76t-72.5 30q-118 0 -118 -114z"/>
<glyph unicode="'" horiz-adv-x="454" d="M121 897v520h213v-520h-213z"/>
<glyph unicode="(" horiz-adv-x="681" d="M63 584q0 264 100.5 486.5t293.5 426.5l161 -139q-161 -178 -239 -357.5t-78 -404.5q0 -371 299 -719l-170 -141q-167 189 -267 406t-100 442z"/>
<glyph unicode=")" horiz-adv-x="681" d="M63 -125q161 178 239.5 357.5t78.5 404.5q0 371 -299 719l170 141q166 -189 266 -406t100 -442q0 -264 -100 -486.5t-293 -426.5z"/>
<glyph unicode="*" d="M213 993v162l254 -29l-160 207l158 84l104 -235l115 235l143 -84l-163 -207l262 29v-162l-262 25l163 -211l-151 -82l-103 246l-116 -246l-140 82l150 211z"/>
<glyph unicode="+" horiz-adv-x="1228" d="M96 412v213h412v411h213v-411h412v-213h-412v-412h-213v412h-412z"/>
<glyph unicode="," horiz-adv-x="569" d="M135 -246l12 520h304l-183 -520h-133z"/>
<glyph unicode="-" horiz-adv-x="796" d="M129 406v225h539v-225h-539z"/>
<glyph unicode="." horiz-adv-x="569" d="M147 0v274h275v-274h-275z"/>
<glyph unicode="/" horiz-adv-x="909" d="M63 0l599 1477l184 -60l-596 -1478z"/>
<glyph unicode="0" d="M74 694q0 110 13.5 208.5t49 195t90 165.5t142 111.5t200.5 42.5t200.5 -42.5t142.5 -111.5t90 -165.5t49 -195t14 -208.5t-14 -208.5t-49 -195t-90 -165.5t-142.5 -111.5t-200.5 -42.5t-200.5 42.5t-142 111.5t-90 165.5t-49 195t-13.5 208.5zM336 694q0 -262 57 -392 t176 -130q234 0 234 522q0 523 -234 523q-119 0 -176 -130.5t-57 -392.5z"/>
<glyph unicode="1" d="M84 969l489 428h238l-12 -1397h-250l12 1104l-323 -295z"/>
<glyph unicode="2" d="M18 164q228 189 358 306.5t202.5 206t93 144t20.5 127.5q0 117 -71 186.5t-185 69.5q-66 0 -127.5 -29.5t-150.5 -105.5l-138 160q110 99 214.5 143.5t242.5 44.5q216 0 353 -123.5t137 -332.5q0 -101 -38 -195t-116.5 -187t-171.5 -175.5t-231 -186.5v-4h555v-213h-889z "/>
<glyph unicode="3" d="M57 106l121 170q132 -92 279 -92q69 0 128.5 20.5t102.5 71t43 123.5q0 89 -74 141.5t-194 55.5l-201 4v211h133q85 0 148.5 13t99 32.5t56.5 48.5t27.5 54.5t6.5 56.5q0 89 -66 138.5t-159 49.5q-164 0 -309 -104l-119 168q111 80 217 114.5t242 34.5q83 0 160.5 -23 t141.5 -66t103 -113.5t39 -157.5q0 -278 -246 -336v-4q122 -18 189 -106.5t67 -215.5q0 -54 -12.5 -106.5t-48.5 -112t-92.5 -103.5t-155 -73t-225.5 -29q-112 0 -216.5 36.5t-185.5 98.5z"/>
<glyph unicode="4" d="M0 502l647 895h262l-8 -871h131v-213h-133l-2 -313h-250l2 313h-579zM266 526h385l8 572l-4 4z"/>
<glyph unicode="5" d="M68 37l75 190q113 -55 265 -55q68 0 131.5 20.5t115.5 59.5t83.5 101.5t31.5 140.5q0 116 -72.5 177.5t-191.5 61.5q-73 0 -133.5 -42.5t-83.5 -112.5l-209 36l160 783h753v-213h-565l-72 -307l4 -5q89 74 242 74q181 0 305.5 -120t124.5 -312q0 -114 -42.5 -213.5 t-121 -172.5t-196 -115t-260.5 -42q-219 0 -344 66z"/>
<glyph unicode="6" d="M74 602q0 78 14.5 157t46 160t77.5 153.5t114 136t151 109.5t192 72.5t234 26.5q80 0 162 -8l-23 -203q-58 11 -143 11q-134 0 -242.5 -47.5t-176.5 -126t-107 -169.5t-49 -188l4 -4q55 76 140.5 120t193.5 44q174 0 290.5 -115t116.5 -305q0 -50 -11 -103.5t-44 -118.5 t-85 -115t-144.5 -84t-211.5 -34q-103 0 -192.5 40t-158.5 116.5t-108.5 198.5t-39.5 276zM332 451q0 -13 5.5 -39t23.5 -67t45.5 -75.5t78 -60t113.5 -25.5q98 0 159.5 67.5t61.5 162.5q0 97 -60.5 158t-158.5 61q-154 0 -268 -182z"/>
<glyph unicode="7" d="M70 1171v226h921l66 -164l-682 -1262l-228 101l617 1099h-694z"/>
<glyph unicode="8" d="M84 383q0 117 74 199.5t196 128.5q-237 87 -237 327q0 93 39 167.5t105 119.5t149 68.5t176 23.5q90 0 169.5 -23t142 -67t98.5 -114.5t36 -159.5q0 -64 -17.5 -115.5t-53 -91.5t-74 -68t-94.5 -59q262 -106 262 -336q0 -186 -136.5 -299t-365.5 -113q-70 0 -134.5 12.5 t-126.5 42.5t-107.5 75.5t-73 118t-27.5 163.5zM334 375q0 -91 69 -141t164 -50q91 0 158.5 51.5t67.5 137.5q0 77 -45 122t-187 109q-227 -98 -227 -229zM367 1042q0 -41 18 -76t51.5 -62t64.5 -45t72 -36q42 18 74 36t65.5 45t51.5 62.5t18 77.5q0 79 -62.5 119.5 t-150.5 40.5q-83 0 -142.5 -42t-59.5 -120z"/>
<glyph unicode="9" d="M70 963q0 50 10.5 103.5t44 118.5t85 114.5t144 83.5t211.5 34q104 0 193.5 -40t158.5 -116.5t108.5 -198.5t39.5 -276q0 -78 -14.5 -157t-46 -160t-77.5 -153.5t-114 -136t-151 -109.5t-192 -72.5t-234 -26.5q-70 0 -162 9l22 202q53 -10 144 -10q108 0 200 31.5 t156.5 83.5t112 121.5t73 143t33.5 150.5l-4 5q-54 -74 -136 -119t-171 -45q-192 0 -313 114t-121 306zM319 975q0 -97 61 -158t159 -61q154 0 268 182q0 13 -5.5 39t-23.5 66.5t-45.5 75.5t-78 60t-113.5 25q-99 0 -160.5 -67t-61.5 -162z"/>
<glyph unicode=":" horiz-adv-x="569" d="M147 0v274h275v-274h-275zM147 733v275h275v-275h-275z"/>
<glyph unicode=";" horiz-adv-x="569" d="M135 -246l12 520h304l-183 -520h-133zM147 733v275h275v-275h-275z"/>
<glyph unicode="&lt;" horiz-adv-x="1228" d="M96 430v176l1037 447v-209l-762 -326l762 -325v-209z"/>
<glyph unicode="=" horiz-adv-x="1228" d="M96 188v213h1037v-213h-1037zM96 635v213h1037v-213h-1037z"/>
<glyph unicode="&gt;" horiz-adv-x="1228" d="M96 -16v209l762 325l-762 326v209l1037 -447v-176z"/>
<glyph unicode="?" horiz-adv-x="1024" d="M68 1292q97 77 193 115.5t210 38.5q89 0 171 -25.5t147.5 -73t105 -123.5t39.5 -169q0 -72 -21.5 -130.5t-56 -97t-76 -72.5t-82.5 -65t-75.5 -65.5t-56 -83.5t-21.5 -109v-37h-238v72q0 72 21 131.5t54 100.5t73 76t80.5 65.5t73.5 61t54 71t21 88.5q0 79 -70.5 131.5 t-152.5 52.5q-68 0 -140.5 -31t-132.5 -79zM299 0v254h250v-254h-250z"/>
<glyph unicode="@" horiz-adv-x="1638" d="M96 709q0 154 60.5 291t162 234.5t241 154.5t292.5 57q135 0 249 -31.5t194.5 -87t136.5 -131t83 -163.5t27 -185q0 -142 -74.5 -264t-189.5 -190t-238 -68q-55 0 -87 24.5t-33 69.5h-5q-37 -40 -86.5 -67t-97.5 -27q-114 0 -198 89.5t-84 211.5q0 112 45 211t133 163 t198 64q137 0 211 -119l23 94h153l-100 -446q-14 -42 -14 -70q0 -19 9.5 -29t35.5 -10q88 0 163.5 112.5t75.5 254.5q0 128 -70.5 227.5t-191.5 153t-272 53.5q-164 0 -290 -76t-193.5 -208t-67.5 -297q0 -257 162 -415.5t418 -158.5q120 0 226 40.5t185 113.5h174 q-103 -150 -258.5 -232t-339.5 -82q-157 0 -298.5 56t-245 153t-164 234.5t-60.5 294.5zM637 657q0 -71 37.5 -113t101.5 -42q90 0 150.5 75.5t60.5 170.5q0 63 -40 102t-103 39q-87 0 -147 -73t-60 -159z"/>
<glyph unicode="A" horiz-adv-x="1366" d="M37 45l545 1372h241l506 -1372l-256 -74l-139 406h-494l-159 -406zM516 590h346l-164 553h-4z"/>
<glyph unicode="B" horiz-adv-x="1251" d="M156 0l14 1417h483q201 0 322 -101.5t121 -262.5q0 -141 -70 -230.5t-178 -101.5v-4q127 -20 199.5 -110.5t72.5 -221.5q0 -176 -123 -280.5t-325 -104.5h-516zM422 201h178h5q123 0 187 51q66 52 66 145q0 217 -285 217h-145zM430 815h154q112 0 187 52t75 153 q0 96 -65 146.5t-183 50.5h-166z"/>
<glyph unicode="C" horiz-adv-x="1366" d="M147 705q0 215 93 384.5t258 263t374 93.5q128 0 248 -41.5t215 -122.5l-114 -182q-63 55 -158.5 88t-181.5 33q-135 0 -240.5 -67t-162 -181.5t-56.5 -255.5q0 -135 56.5 -253.5t161 -192.5t232.5 -74q122 0 200 23.5t157 68.5l104 -180q-197 -138 -450 -138 q-208 0 -376.5 94.5t-264 262.5t-95.5 377z"/>
<glyph unicode="D" horiz-adv-x="1478" d="M156 0l12 1417h467q335 0 539 -192t204 -508q0 -157 -62 -293t-164 -227.5t-235 -144t-274 -52.5h-487zM420 225h170q234 0 374 130.5t140 363.5q0 204 -127.5 338.5t-333.5 134.5h-215z"/>
<glyph unicode="E" horiz-adv-x="1024" d="M156 0l14 1417h758v-225h-496l-4 -365h492v-213h-494l-2 -389h504v-225h-772z"/>
<glyph unicode="F" horiz-adv-x="1024" d="M156 0l14 1417h784l-2 -225h-520l-2 -365h516l-2 -225h-518l-2 -602h-268z"/>
<glyph unicode="G" horiz-adv-x="1478" d="M111 709q0 152 59.5 289t161 235t242 155.5t296.5 57.5q270 0 459 -105l-96 -196q-183 88 -363 88q-90 0 -176.5 -36t-155.5 -101.5t-111 -166.5t-42 -220q0 -233 133.5 -379t351.5 -146q113 0 201 37l10 498h275l-10 -645q-263 -103 -476 -103q-159 0 -299.5 55.5 t-241.5 152t-159.5 234.5t-58.5 296z"/>
<glyph unicode="H" horiz-adv-x="1478" d="M156 0l12 1417h264l-4 -577h625l4 577h266l-12 -1417h-267l9 614h-625l-8 -614h-264z"/>
<glyph unicode="I" horiz-adv-x="569" d="M147 0l13 1417h262l-12 -1417h-263z"/>
<glyph unicode="J" horiz-adv-x="796" d="M-51 -16l16 209q56 -9 78 -9q57 0 100 13.5t78.5 45t54 89.5t19.5 141l8 944h262l-8 -999q-2 -199 -130.5 -323t-344.5 -124q-40 0 -133 13z"/>
<glyph unicode="K" horiz-adv-x="1251" d="M156 0l10 1417h262l-4 -661h10l580 690l194 -156l-506 -559l500 -608l-213 -152l-561 713h-4l-6 -684h-262z"/>
<glyph unicode="L" horiz-adv-x="1024" d="M170 0l12 1417h262l-12 -1192h555v-225h-817z"/>
<glyph unicode="M" horiz-adv-x="1933" d="M98 0l250 1417h268l345 -1132h4l393 1132h268l209 -1417l-266 -29l-107 1119h-4l-360 -1090h-271l-325 1090h-4l-148 -1119z"/>
<glyph unicode="N" horiz-adv-x="1478" d="M156 0l12 1372l244 74l661 -1086h4l-16 1057h262l-12 -1372l-264 -74l-646 1080l-4 -4l21 -1047h-262z"/>
<glyph unicode="O" horiz-adv-x="1703" d="M92 709q0 203 101.5 373t276 267t382.5 97q169 0 312 -57t240.5 -156t152.5 -234.5t55 -289.5q0 -153 -58.5 -289.5t-159.5 -235t-242 -156t-300 -57.5q-213 0 -386.5 94t-273.5 263.5t-100 380.5zM367 709q0 -233 133.5 -379t351.5 -146q142 0 254.5 73t171.5 192 t59 260q0 229 -134 376.5t-351 147.5q-90 0 -176.5 -36t-155.5 -101.5t-111 -166.5t-42 -220z"/>
<glyph unicode="P" d="M156 0l14 1417h399q518 0 518 -432q0 -106 -42 -189.5t-114 -135t-163.5 -78.5t-196.5 -27h-145l-2 -555h-268zM430 768h133q108 0 179 60.5t71 158.5q0 28 -6.5 56t-23.5 57.5t-43 52t-69 37t-98 14.5h-139z"/>
<glyph unicode="Q" horiz-adv-x="1703" d="M92 709q0 203 101.5 373t276 267t382.5 97q169 0 312 -57t240.5 -156t152.5 -234.5t55 -289.5q0 -329 -262 -570l301 -151l-135 -185l-386 213q-134 -45 -278 -45q-213 0 -386.5 94t-273.5 263.5t-100 380.5zM367 709q0 -233 133.5 -379t351.5 -146q142 0 254.5 73.5 t171.5 192.5t59 259q0 229 -134 376.5t-351 147.5q-90 0 -176.5 -36t-155.5 -101.5t-111 -166.5t-42 -220z"/>
<glyph unicode="R" horiz-adv-x="1251" d="M156 0l14 1417h448q124 0 218.5 -32t151 -88.5t84.5 -129t28 -159.5q0 -132 -73.5 -228t-201.5 -141l404 -528l-234 -140l-393 547q-35 49 -94 49h-82l-2 -567h-268zM430 780h162q27 0 54.5 5t61 19.5t58.5 37.5t42 64t17 93q0 98 -67.5 151.5t-171.5 53.5h-152z"/>
<glyph unicode="S" horiz-adv-x="1024" d="M76 1034q0 176 131.5 294t341.5 118q193 0 399 -119l-110 -188q-49 27 -67 36t-58.5 27t-74 24.5t-69.5 6.5q-96 0 -163.5 -50.5t-67.5 -140.5q0 -56 33 -99t85 -72t115.5 -56t127 -61t115.5 -77.5t85 -114.5t33 -163q0 -183 -132.5 -305.5t-336.5 -122.5 q-200 0 -385 109l102 201q57 -39 126.5 -68t123.5 -29q105 0 166 58.5t61 146.5q0 45 -20 80.5t-54 59.5t-77.5 45t-91.5 41.5t-96 43.5t-91.5 56t-77 75t-53.5 104.5t-20 139.5z"/>
<glyph unicode="T" d="M43 1192l2 225h1051l-2 -225h-392l-10 -1192h-262l10 1192h-397z"/>
<glyph unicode="U" horiz-adv-x="1478" d="M160 526q0 170 3.5 481t4.5 410h262q-1 -100 -4.5 -416.5t-3.5 -488.5q0 -145 89 -230t224 -85q151 0 233.5 90t84.5 239l8 891h262l-8 -905q-3 -255 -163.5 -398t-420.5 -143t-415.5 143.5t-155.5 411.5z"/>
<glyph unicode="V" horiz-adv-x="1366" d="M37 1362l264 84l363 -1114h4l407 1114l254 -84l-541 -1362h-245z"/>
<glyph unicode="W" horiz-adv-x="2048" d="M37 1380l262 66l266 -1127h4l320 1098h276l279 -1098h4l309 1127l254 -68l-436 -1378h-279l-276 1108h-4l-314 -1108h-274z"/>
<glyph unicode="X" horiz-adv-x="1251" d="M43 94l436 627l-411 594l239 131l332 -526l338 526l227 -131l-418 -598l422 -623l-237 -123l-340 543l-361 -543z"/>
<glyph unicode="Y" horiz-adv-x="1251" d="M12 1311l240 135l371 -606l385 606l231 -133l-483 -717l-8 -596h-275l8 588z"/>
<glyph unicode="Z" d="M63 168l678 1024h-645v225h897l82 -188l-665 -1004h632v-225h-897z"/>
<glyph unicode="[" horiz-adv-x="681" d="M178 -233l17 1679h462l-2 -176h-235l-17 -1327h238l-2 -176h-461z"/>
<glyph unicode="\" horiz-adv-x="909" d="M63 1417l185 60l598 -1477l-187 -61z"/>
<glyph unicode="]" horiz-adv-x="681" d="M25 -233l2 176h235l17 1327h-238l2 176h461l-17 -1679h-462z"/>
<glyph unicode="^" horiz-adv-x="1228" d="M135 608l383 789h193l383 -789h-213l-267 576l-266 -576h-213z"/>
<glyph unicode="_" horiz-adv-x="1024" d="M0 -154h1024v-102h-1024v102z"/>
<glyph unicode="`" horiz-adv-x="569" d="M-20 1462h276l180 -286h-170z"/>
<glyph unicode="a" horiz-adv-x="1024" d="M63 272q0 53 14.5 97t52 88t99 79t159 66t228.5 53v68q0 80 -29.5 108.5t-88.5 28.5q-43 0 -102 -28.5t-167 -112.5l-118 133q155 127 254 168t196 41q124 0 209.5 -77t85.5 -220q0 -59 -2 -86l-8 -297q-4 -94 -4 -129q0 -41 17 -69.5t38 -28.5q18 0 74 26l59 -125 q-127 -84 -215 -84q-67 0 -116 37t-62 101q-119 -138 -264 -138q-139 0 -224.5 82t-85.5 219zM301 281q0 -56 36 -88.5t95 -32.5q40 0 87.5 25t90.5 71l4 240q-176 -39 -244.5 -87.5t-68.5 -127.5z"/>
<glyph unicode="b" d="M125 0l8 1536h250l-8 -629l4 -4q34 75 103.5 116.5t164.5 41.5q124 0 220 -70.5t146 -187.5t50 -258q0 -79 -19 -160t-58 -155.5t-93 -132t-128.5 -92t-158.5 -34.5q-172 0 -237 119h-4v-90h-240zM373 264q22 -31 69 -55.5t97 -24.5q87 0 151.5 51.5t93.5 126.5t29 160 q0 84 -23 155.5t-77 121t-131 49.5q-67 0 -115.5 -34.5t-91.5 -100.5z"/>
<glyph unicode="c" horiz-adv-x="909" d="M76 500q0 145 56 271.5t168.5 208t260.5 81.5q204 0 361 -174l-142 -137q-41 34 -64.5 50t-63.5 32t-81 16q-74 0 -128.5 -49.5t-79.5 -122t-25 -154.5q0 -158 62 -248t159 -90q62 0 110 30t101 85l139 -131q-160 -197 -385 -197q-86 0 -159.5 31t-126 83t-89.5 120.5 t-55 143.5t-18 151z"/>
<glyph unicode="d" d="M76 502q0 106 30 204.5t85 177t141.5 126t191.5 47.5q154 0 230 -99h4l6 578h250l-6 -1536h-240v113h-4q-39 -60 -109.5 -99t-146.5 -39q-189 0 -310.5 148.5t-121.5 378.5zM326 514q0 -142 70 -234t177 -92q60 0 115.5 48.5t65.5 113.5v400q-68 94 -174 94 q-105 0 -179.5 -92t-74.5 -238z"/>
<glyph unicode="e" horiz-adv-x="1024" d="M76 512q0 104 32 201.5t90 175.5t149 125t200 47q214 0 320 -150t106 -426h-647q1 -56 14.5 -109t40 -100t73.5 -75.5t109 -28.5q117 0 240 133l143 -131q-183 -203 -420 -203q-198 0 -324 150t-126 391zM338 662h397q-5 94 -51 158.5t-137 64.5q-80 0 -140.5 -70.5 t-68.5 -152.5z"/>
<glyph unicode="f" horiz-adv-x="681" d="M45 844v188h164v133q0 173 102 280t287 107h80v-200h-57q-73 0 -115.5 -43t-42.5 -135v-142h213v-188h-219v-844h-252l4 844h-164z"/>
<glyph unicode="g" d="M61 -193q0 54 18 97t54 75.5t68 53t82 45.5v4q-115 25 -157 47q-65 35 -65 96q0 63 48 107.5t194 136.5q-141 76 -141 242q0 107 55.5 188t145.5 121.5t198 40.5q55 0 99.5 -7t68.5 -14.5t62 -23.5l333 6v-160l-202 6q59 -65 59 -157q0 -103 -54.5 -180.5t-140.5 -115.5 t-186 -38q-104 0 -188 26q-6 -5 -23.5 -17t-26 -18.5t-19.5 -17t-16 -20.5t-5 -21q0 -32 55 -44.5t239 -28.5q60 -5 100 -10t94.5 -15t90.5 -24t75.5 -37t62.5 -52.5t38 -73t15 -96.5q0 -82 -33.5 -152.5t-90 -119.5t-129.5 -84t-152.5 -51.5t-158.5 -16.5q-119 0 -211.5 26 t-146.5 69.5t-81.5 96.5t-27.5 111zM274 -158q0 -47 27 -83.5t70 -56t88.5 -29t89.5 -9.5q129 0 217 67t88 150q0 29 -3.5 47t-21.5 34.5t-39.5 25.5t-73 19.5t-106.5 18t-155 19.5q-93 -57 -124 -86q-57 -55 -57 -117zM399 711q0 -73 45.5 -123.5t130.5 -50.5 q82 0 125 49.5t43 134.5q0 76 -44 128t-117 52q-85 0 -134 -52t-49 -138z"/>
<glyph unicode="h" d="M135 0l10 1536h250l-4 -629h4q63 71 149 112.5t185 41.5q78 0 134 -25.5t85.5 -71t42.5 -98t13 -116.5q0 -56 -1.5 -130t-1.5 -102l-6 -518h-250l3 258q4 320 4 438q0 140 -136 140q-87 0 -227 -136l-4 -700h-250z"/>
<glyph unicode="i" horiz-adv-x="569" d="M154 0l10 1032h250l-11 -1032h-249zM164 1176l2 241h250l-2 -241h-250z"/>
<glyph unicode="j" horiz-adv-x="569" d="M-6 -307q56 4 84.5 13.5t47.5 40.5t24 77.5t6 136.5l8 1071h250l-8 -1093q-1 -86 -7.5 -147t-24.5 -112t-47 -82.5t-75.5 -53.5t-109 -31t-148.5 -9v189zM164 1176l2 241h250l-2 -241h-250z"/>
<glyph unicode="k" horiz-adv-x="1024" d="M135 0l12 1536h250l-12 -985h4l438 543l179 -150l-361 -405l361 -461l-205 -141l-412 569h-4v-506h-250z"/>
<glyph unicode="l" horiz-adv-x="569" d="M154 0l12 1536h250l-13 -1536h-249z"/>
<glyph unicode="m" horiz-adv-x="1705" d="M137 0l4 1032h248v-137l4 -4q49 76 131.5 123t175.5 47q94 0 161 -44t91 -132q59 80 150 128t188 48q67 0 117.5 -18.5t80.5 -48t49 -70t25.5 -79t6.5 -81.5q0 -127 -1 -382t-1 -382h-250l2 406q0 59 1 170.5t1 132.5q0 59 -33.5 93t-91.5 34q-50 0 -111.5 -44.5 t-101.5 -93.5l-8 -698h-248l2 406q0 59 1 170.5t1 132.5q0 59 -33.5 93t-91.5 34q-50 0 -111.5 -44.5t-101.5 -93.5l-8 -698h-248z"/>
<glyph unicode="n" d="M135 0l10 1032h246v-125h4q63 71 149 112.5t185 41.5q78 0 134 -25.5t85.5 -71t42.5 -98t13 -116.5q0 -56 -1.5 -130t-1.5 -102l-6 -518h-250l3 258q4 320 4 406q0 96 -29.5 134t-106.5 38q-87 0 -227 -136l-4 -700h-250z"/>
<glyph unicode="o" d="M76 516q0 102 35 200t97 174.5t156.5 123.5t204.5 47q159 0 272.5 -73.5t167.5 -194.5t54 -277q0 -148 -57.5 -271t-171.5 -198.5t-265 -75.5q-122 0 -218 43.5t-155 119.5t-89.5 173t-30.5 209zM326 508q0 -40 7 -83t25 -89t44.5 -82t70 -59t96.5 -23q64 0 113.5 32 t76.5 83t40.5 107.5t13.5 113.5q0 166 -60.5 259t-183.5 93q-53 0 -96 -23t-70 -59.5t-45 -84t-25 -93.5t-7 -92z"/>
<glyph unicode="p" d="M115 -496l6 1528h239v-108h5q39 60 109.5 98.5t150.5 38.5q193 0 315.5 -148.5t122.5 -382.5q0 -84 -18.5 -164.5t-57 -151.5t-91.5 -124t-127.5 -84t-160.5 -31q-157 0 -233 99h-4l-6 -570h-250zM375 283q77 -95 178 -95q102 0 181 91t79 239q0 146 -70.5 238t-183.5 92 q-75 0 -124 -46.5t-60 -115.5v-403z"/>
<glyph unicode="q" d="M76 487q0 79 19 160t58 155.5t92.5 132t128 92t158.5 34.5q173 0 238 -119h4v90h240l-8 -1528h-250l8 621l-4 4q-34 -75 -103.5 -116.5t-164.5 -41.5q-124 0 -220 70.5t-146 187.5t-50 258zM326 510q0 -84 23 -155.5t77 -121t131 -49.5q67 0 115.5 34.5t91.5 100.5l2 449 q-22 31 -69 55.5t-97 24.5q-87 0 -151.5 -51.5t-93.5 -126.5t-29 -160z"/>
<glyph unicode="r" horiz-adv-x="681" d="M135 0l10 1032h250v-188l2 -4q42 103 97 160.5t143 60.5q32 0 74 -10l-41 -240q-40 8 -60 8q-133 0 -217 -180l-6 -639h-252z"/>
<glyph unicode="s" horiz-adv-x="907" d="M82 70l92 176q146 -86 258 -86q61 0 102 30.5t41 90.5q0 42 -26.5 68.5t-69 41t-93.5 27.5t-102.5 34t-94 52.5t-69 92t-26.5 144.5q0 102 54 176.5t139 109t188 34.5q95 0 189.5 -28.5t160.5 -84.5l-106 -157q-46 35 -109 58t-118 23q-61 0 -110.5 -32t-49.5 -90 q0 -35 21 -60.5t56 -40t79 -29.5t90.5 -27.5t90.5 -36.5t79 -54.5t56 -82t21 -118.5q0 -106 -56 -182.5t-142.5 -112t-190.5 -35.5q-187 0 -354 99z"/>
<glyph unicode="t" horiz-adv-x="681" d="M45 844v188l139 -4l9 369h249l-8 -369l230 4v-188h-230l-6 -303q-2 -102 -2 -273q0 -108 84 -108q46 0 115 49l71 -152l-84 -45q-73 -41 -155 -41q-134 0 -207.5 75.5t-73.5 234.5q0 157 2 247l6 316h-139z"/>
<glyph unicode="u" d="M137 322q0 31 1 95t1 97l6 518h250l-2 -258q-4 -300 -4 -407q0 -93 29.5 -131.5t105.5 -38.5q89 0 228 135l4 700h250l-9 -1032h-249v125h-5q-61 -70 -144.5 -112t-174.5 -42q-83 0 -140.5 26t-88.5 75t-44.5 109.5t-13.5 140.5z"/>
<glyph unicode="v" horiz-adv-x="1024" d="M20 989l250 72l224 -750h4l268 750l238 -72l-398 -989h-237z"/>
<glyph unicode="w" horiz-adv-x="1593" d="M27 999l245 62l189 -756h4l203 727h264l190 -727h4l209 756l232 -76l-332 -985h-254l-182 756h-4l-201 -756h-252z"/>
<glyph unicode="x" horiz-adv-x="1024" d="M33 86l338 430l-318 432l219 137l248 -393l256 393l207 -137l-319 -432l327 -430l-223 -129l-248 389l-276 -389z"/>
<glyph unicode="y" horiz-adv-x="1024" d="M20 989l250 72l224 -750h4l268 750l238 -72l-447 -1118q-38 -96 -76.5 -159.5t-92.5 -113t-127 -72t-171 -22.5h-47v201h37q150 0 215 137l74 158z"/>
<glyph unicode="z" horiz-adv-x="909" d="M51 147l477 684h-452v201h706l76 -147l-481 -684h457v-201h-709z"/>
<glyph unicode="{" horiz-adv-x="681" d="M27 518v176q29 0 60.5 10.5t62.5 31t51 59t20 86.5l2 288q1 66 27.5 121t66 87.5t82 50.5t78.5 18h180v-176h-112q-111 0 -111 -152l-2 -266q-1 -57 -17 -101.5t-38 -68.5t-53 -41t-52 -22.5t-45 -8.5v-8q24 -3 45 -8.5t51 -22.5t51 -41t36.5 -68.5t15.5 -101.5 q0 -44 -1 -133t-1 -133q0 -151 111 -151h110v-176h-182q-36 0 -78 17.5t-81 50t-65 87.5t-26 121q0 48 2 144.5t2 144.5t-19.5 86t-50 58.5t-61.5 31t-59 10.5z"/>
<glyph unicode="|" horiz-adv-x="454" d="M121 -29v1565h213v-1565h-213z"/>
<glyph unicode="}" horiz-adv-x="681" d="M25 -57h110q111 0 111 151l2 266q1 57 17 101.5t38 68.5t53 41t53 22.5t46 8.5v8q-201 26 -201 242q0 44 1 133t1 133q0 152 -111 152h-108v176h180q36 0 78 -18t81 -50.5t65 -87.5t26 -121q0 -48 -2 -144t-2 -144t20 -86.5t50.5 -59t61.5 -31t60 -10.5v-176 q-29 0 -61 -10.5t-63.5 -31t-51.5 -58.5t-20 -86l-2 -289q-1 -66 -27.5 -121t-66 -87.5t-82 -50t-78.5 -17.5h-178v176z"/>
<glyph unicode="~" horiz-adv-x="1228" d="M141 510q92 176 256 176q84 0 236 -70q5 -2 15 -7q126 -57 172 -61l14 -1q29 0 55 11.5t49.5 36t38 44.5t37.5 55l73 -172q-23 -32 -38.5 -52t-41 -46.5t-49.5 -41t-57 -25.5t-70 -11q-38 0 -80 12.5t-62.5 22t-70.5 35.5q-43 22 -70.5 34.5t-72 23.5t-88.5 11 q-105 0 -172 -147z"/>
<glyph unicode="¡" horiz-adv-x="679" d="M213 -385l6 1018h250l-6 -1018h-250zM219 778v254h250v-254h-250z"/>
<glyph unicode="¢" d="M158 500q0 145 56 271.5t168.5 208t260.5 81.5q43 0 76 -8l43 172l104 -25l-45 -176q95 -42 183 -137l-142 -137q-56 45 -92 67l-160 -629q10 -4 31 -4q62 0 110 30t101 85l139 -131q-160 -197 -385 -197q-35 0 -49 4l-43 -165l-104 22l43 168q-94 38 -162.5 119.5 t-100.5 179.5t-32 201zM420 522q0 -197 92 -282l154 606l-13 2q-74 0 -128.5 -49.5t-79.5 -122t-25 -154.5z"/>
<glyph unicode="£" d="M74 651v160h221q4 107 26.5 198t68 167t110.5 129t156.5 82.5t203.5 29.5q101 0 211 -20l-24 -193q-5 0 -55 6.5t-77 6.5q-100 0 -169 -28t-107.5 -83t-55 -126.5t-14.5 -168.5h443v-160h-449q-24 -363 -155 -434v-4h636v-213h-958v182q30 5 47 9.5t42 17.5t39 32t31 53 t25.5 81t14.5 117t6 159h-217z"/>
<glyph unicode="¤" d="M41 285l117 118q-99 116 -99 291q0 89 25 167.5t74 127.5l-117 119l117 117l116 -115q51 43 132 68.5t167 25.5q81 0 158 -25.5t123 -66.5l119 117l125 -125l-115 -113q43 -49 67.5 -128t24.5 -165q0 -182 -94 -299l113 -114l-113 -113l-117 119q-50 -49 -128.5 -76 t-164.5 -27q-191 0 -301 101l-114 -119zM272 694q0 -128 86.5 -216.5t212.5 -88.5q124 0 207.5 90.5t83.5 218.5q0 125 -83 215.5t-206 90.5q-128 0 -214.5 -90t-86.5 -220z"/>
<glyph unicode="¥" d="M16 1311l240 135l311 -606l324 606l231 -133l-397 -670h260v-160h-285l-2 -127h283v-159h-285l-2 -197h-274l2 197h-285v159h287l2 127h-285v160h254z"/>
<glyph unicode="¦" horiz-adv-x="454" d="M121 -29v586h213v-586h-213zM121 950v586h213v-586h-213z"/>
<glyph unicode="§" d="M113 590q0 85 52.5 154.5t131.5 109.5q-64 36 -96.5 100.5t-32.5 143.5q0 82 39.5 149.5t103.5 110t140 65.5t153 23q213 0 391 -127l-104 -172q-153 98 -287 98q-85 0 -141.5 -38t-56.5 -111q0 -42 34 -71.5t89 -48t121 -35.5t132 -41t121 -57t89 -91t34 -136 q0 -155 -176 -256q72 -35 104.5 -90t32.5 -143q0 -87 -39.5 -159.5t-103.5 -118t-140 -70.5t-153 -25q-220 0 -408 117l105 174q62 -38 136 -64t138 -26q228 0 228 154q0 35 -27.5 61.5t-72 42.5t-102 33t-117 32t-117 41.5t-102 59.5t-72 87.5t-27.5 123.5zM338 633 q0 -30 16 -61.5t49 -51.5q18 -10 104.5 -40t184.5 -56q40 19 74.5 59t34.5 78q0 35 -9.5 58t-27.5 41.5t-65.5 37.5t-100.5 36t-156 46q-104 -53 -104 -147z"/>
<glyph unicode="¨" horiz-adv-x="569" d="M-10 1192v225h225v-225h-225zM354 1192v225h226v-225h-226z"/>
<glyph unicode="©" horiz-adv-x="1638" d="M82 709q0 150 58 286.5t157 235.5t235.5 157t286.5 58t286.5 -58t235.5 -157t157 -235.5t58 -286.5t-58 -287t-157 -235.5t-235.5 -157t-286.5 -58.5t-286.5 58.5t-235.5 157t-157 235.5t-58 287zM258 709q0 -156 76.5 -289.5t206 -211t278.5 -77.5t278.5 77.5t206 211 t76.5 289.5t-76.5 289.5t-206 210.5t-278.5 77t-278.5 -77t-206 -210.5t-76.5 -289.5zM420 707q0 190 112 312t302 122q140 0 237.5 -79.5t118.5 -225.5h-164q-13 70 -66 107.5t-126 37.5q-101 0 -157 -74.5t-56 -197.5q0 -118 60.5 -197.5t156.5 -79.5q78 0 129.5 39.5 t58.5 110.5h170q-23 -145 -122.5 -227.5t-235.5 -82.5q-187 0 -302.5 124t-115.5 311z"/>
<glyph unicode="ª" horiz-adv-x="665" d="M41 952q0 165 336 222v28q0 38 -13.5 53t-39.5 15q-51 0 -174 -70l-78 92q101 76 165.5 100.5t127.5 24.5q81 0 136.5 -46t55.5 -132q0 -37 -2 -51l-6 -152q0 -15 -1 -40.5t-1 -37.5q0 -25 11.5 -42t25.5 -17q11 0 47 25l39 -103q-82 -49 -140 -49q-44 0 -80 22t-49 60 q-66 -82 -159 -82q-90 0 -145.5 49t-55.5 131zM217 952q0 -15 18 -30t46 -15q55 0 86 54l8 116q-88 -23 -123 -51.5t-35 -73.5z"/>
<glyph unicode="«" d="M147 518l334 408l113 -86l-211 -322l223 -328l-110 -79zM530 518l334 408l115 -86l-211 -322l223 -328l-112 -79z"/>
<glyph unicode="¬" horiz-adv-x="1228" d="M96 635v213h1037v-627h-213v414h-824z"/>
<glyph unicode="­" horiz-adv-x="796" d="M129 406v225h539v-225h-539z"/>
<glyph unicode="®" horiz-adv-x="1638" d="M82 709q0 150 58 286.5t157 235.5t235.5 157t286.5 58t286.5 -58t235.5 -157t157 -235.5t58 -286.5t-58 -287t-157 -235.5t-235.5 -157t-286.5 -58.5t-286.5 58.5t-235.5 157t-157 235.5t-58 287zM258 709q0 -156 76.5 -289.5t206 -211t278.5 -77.5t278.5 77.5t206 211 t76.5 289.5t-76.5 289.5t-206 210.5t-278.5 77t-278.5 -77t-206 -210.5t-76.5 -289.5zM522 301v817h309q164 0 246 -56t82 -188q0 -202 -217 -219l217 -354h-196l-197 346h-68v-346h-176zM698 782h144q72 0 106.5 21t34.5 86q0 94 -160 94h-125v-201z"/>
<glyph unicode="¯" horiz-adv-x="569" d="M-12 1235v135h594v-135h-594z"/>
<glyph unicode="°" horiz-adv-x="819" d="M117 1124q0 123 85 208t208 85t207.5 -85t84.5 -208t-84.5 -208t-207.5 -85t-208 85t-85 208zM240 1124q0 -70 50 -120t120 -50t120 50t50 120t-50 120t-120 50t-120 -50t-50 -120z"/>
<glyph unicode="±" horiz-adv-x="1228" d="M96 0v213h1037v-213h-1037zM96 553v213h412v270h213v-270h412v-213h-412v-272h-213v272h-412z"/>
<glyph unicode="²" horiz-adv-x="739" d="M4 666q185 150 272 232.5t115.5 129.5t28.5 98q0 62 -45.5 103t-112.5 41q-62 0 -168 -72l-90 107q71 59 139 85.5t158 26.5q141 0 230.5 -74.5t89.5 -199.5q0 -115 -86.5 -213.5t-253.5 -210.5v-4h337v-148h-577z"/>
<glyph unicode="³" horiz-adv-x="739" d="M29 631l80 123q85 -56 165 -56q62 0 112 31t50 88q0 43 -45.5 72t-111.5 29h-117v147h71q64 0 108.5 10.5t65 27.5t28 33t7.5 33q0 43 -42 72t-93 29q-92 0 -186 -64l-78 121q71 49 140 69.5t159 20.5q72 0 136.5 -23t108.5 -73.5t44 -118.5q0 -166 -160 -201v-4 q79 -9 122.5 -61.5t43.5 -130.5q0 -33 -8 -64.5t-31 -67t-60 -61.5t-100.5 -43.5t-146.5 -17.5q-146 0 -262 80z"/>
<glyph unicode="´" horiz-adv-x="569" d="M133 1176l180 286h277l-287 -286h-170z"/>
<glyph unicode="¶" horiz-adv-x="1269" d="M4 1049q0 83 24 146.5t66.5 105t105.5 68t135 37.5t161 11h600v-1634h-213v1458h-217v-1458h-213v911q-211 0 -330 96t-119 259z"/>
<glyph unicode="·" horiz-adv-x="569" d="M135 578q0 61 44 105t106 44q61 0 105 -43.5t44 -105.5t-44 -106t-105 -44t-105.5 44t-44.5 106z"/>
<glyph unicode="¸" horiz-adv-x="569" d="M80 -410l39 78q5 -2 24 -8.5t28 -9.5t24.5 -7t28.5 -6t26 -2q125 0 125 89q0 40 -29 57.5t-72 17.5q-42 0 -73 -14l-45 35l114 180h101l-70 -119l4 -4q24 8 45 8q77 0 133 -40t56 -113q0 -65 -37.5 -110.5t-92 -65t-118.5 -19.5q-90 0 -211 53z"/>
<glyph unicode="¹" horiz-adv-x="739" d="M63 1149l297 256h175l-7 -838h-190l10 641l-186 -176z"/>
<glyph unicode="º" horiz-adv-x="739" d="M49 1094q0 81 38.5 154.5t113.5 121t170 47.5q154 0 236.5 -90.5t82.5 -232.5q0 -135 -86 -228.5t-233 -93.5q-156 0 -239 92t-83 230zM238 1090q0 -35 10 -70.5t42 -67.5t81 -32q48 0 79.5 32t41.5 67.5t10 70.5q0 29 -6 58t-20 57.5t-41 46.5t-64 18q-38 0 -65.5 -18 t-41.5 -46.5t-20 -57.5t-6 -58z"/>
<glyph unicode="»" d="M147 190l224 328l-211 322l112 86l334 -408l-348 -407zM532 190l224 328l-211 322l112 86l334 -408l-348 -407z"/>
<glyph unicode="¼" horiz-adv-x="1708" d="M72 1149l297 256h174l-6 -838h-191l10 641l-186 -176zM279 0l909 1456l112 -67l-907 -1452zM868 301l420 537h170l-4 -510h84v-148h-86v-180h-190l2 180h-351zM1051 328h215l4 270l-4 4z"/>
<glyph unicode="½" horiz-adv-x="1708" d="M72 1149l297 256h174l-6 -838h-191l10 641l-186 -176zM274 0l910 1456l112 -67l-907 -1452zM942 98q184 150 271.5 232.5t116 130t28.5 98.5q0 62 -45.5 102.5t-112.5 40.5q-64 0 -168 -71l-90 106q72 59 140 86t157 27q141 0 230.5 -75t89.5 -200q0 -115 -86.5 -213 t-253.5 -210v-5h337v-147h-577z"/>
<glyph unicode="¾" horiz-adv-x="1708" d="M94 631l80 123q85 -56 166 -56q62 0 112 31t50 88q0 43 -46 72t-112 29h-117v147h72q64 0 108.5 10.5t65 27.5t28 33t7.5 33q0 43 -42 72t-93 29q-93 0 -187 -64l-77 121q71 49 140 69.5t159 20.5q72 0 136 -23t108 -73.5t44 -118.5q0 -166 -159 -201v-4q79 -9 122 -61.5 t43 -130.5q0 -33 -8 -64.5t-31 -67t-60 -61.5t-100.5 -43.5t-146.5 -17.5q-146 0 -262 80zM369 0l909 1456l113 -67l-908 -1452zM868 301l420 537h170l-4 -510h84v-148h-86v-180h-190l2 180h-351zM1051 328h215l4 270l-4 4z"/>
<glyph unicode="¿" horiz-adv-x="1024" d="M90 -23q0 72 21.5 130.5t56 97t76 72.5t82.5 65t75.5 65.5t56 83.5t21.5 109v37h238v-72q0 -72 -21 -131.5t-54 -100.5t-73.5 -76t-80.5 -65.5t-73 -61t-54 -71t-21 -88.5q0 -79 70.5 -131.5t152.5 -52.5q68 0 140 31.5t133 79.5l120 -158q-97 -77 -193 -115.5 t-210 -38.5q-89 0 -171 25.5t-147.5 73t-105 123.5t-39.5 169zM475 778v254h250v-254h-250z"/>
<glyph unicode="À" horiz-adv-x="1366" d="M37 45l545 1372h241l506 -1372l-256 -74l-139 406h-494l-159 -406zM379 1823h276l181 -287h-170zM516 590h346l-164 553h-4z"/>
<glyph unicode="Á" horiz-adv-x="1366" d="M37 45l545 1372h241l506 -1372l-256 -74l-139 406h-494l-159 -406zM516 590h346l-164 553h-4zM532 1536l181 287h276l-287 -287h-170z"/>
<glyph unicode="Â" horiz-adv-x="1366" d="M37 45l545 1372h241l506 -1372l-256 -74l-139 406h-494l-159 -406zM346 1524l223 299h228l225 -299h-186l-152 188l-152 -188h-186zM516 590h346l-164 553h-4z"/>
<glyph unicode="Ã" horiz-adv-x="1366" d="M37 45l545 1372h241l506 -1372l-256 -74l-139 406h-494l-159 -406zM324 1542q11 54 26.5 93.5t41.5 74t66.5 52.5t94.5 18q39 0 149 -39q109 -37 142 -37q63 0 88 92h112q-23 -112 -74 -174.5t-155 -62.5q-41 0 -149 38q-109 37 -142 37q-63 0 -88 -92h-112zM516 590h346 l-164 553h-4z"/>
<glyph unicode="Ä" horiz-adv-x="1366" d="M37 45l545 1372h241l506 -1372l-256 -74l-139 406h-494l-159 -406zM389 1552v226h225v-226h-225zM516 590h346l-164 553h-4zM754 1552v226h225v-226h-225z"/>
<glyph unicode="Å" horiz-adv-x="1366" d="M37 45l545 1372h241l506 -1372l-256 -74l-139 406h-494l-159 -406zM494 1669q0 86 62.5 148.5t148.5 62.5q85 0 147.5 -62.5t62.5 -148.5q0 -85 -62.5 -148t-147.5 -63q-86 0 -148.5 63t-62.5 148zM516 590h346l-164 553h-4zM604 1669q0 -41 30 -70.5t71 -29.5t70.5 29.5 t29.5 70.5t-29.5 70.5t-70.5 29.5t-71 -29.5t-30 -70.5z"/>
<glyph unicode="Æ" horiz-adv-x="1820" d="M-12 78l778 1339h901v-225h-487l-4 -365h475v-213h-475l-5 -389h496v-225h-764l4 401h-456l-236 -430zM575 614h332l8 603h-4z"/>
<glyph unicode="Ç" horiz-adv-x="1366" d="M147 705q0 215 93 384.5t258 263t374 93.5q128 0 248 -41.5t215 -122.5l-114 -182q-63 55 -158.5 88t-181.5 33q-135 0 -240.5 -67t-162 -181.5t-56.5 -255.5q0 -135 56.5 -253.5t161 -192.5t232.5 -74q122 0 200 23.5t157 68.5l104 -180q-197 -138 -450 -138 q-208 0 -376.5 94.5t-264 262.5t-95.5 377zM602 -410l39 78q5 -2 24 -8.5t28 -9.5t24.5 -7t28.5 -6t26 -2q125 0 125 89q0 40 -28.5 57.5t-71.5 17.5t-74 -14l-45 35l115 180h100l-70 -119l4 -4q24 8 45 8q77 0 133 -40t56 -113q0 -65 -37.5 -110.5t-92 -65t-118.5 -19.5 q-90 0 -211 53z"/>
<glyph unicode="È" horiz-adv-x="1024" d="M156 0l14 1417h758v-225h-496l-4 -365h492v-213h-494l-2 -389h504v-225h-772zM207 1823h276l181 -287h-170z"/>
<glyph unicode="É" horiz-adv-x="1024" d="M156 0l14 1417h758v-225h-496l-4 -365h492v-213h-494l-2 -389h504v-225h-772zM360 1536l181 287h276l-287 -287h-170z"/>
<glyph unicode="Ê" horiz-adv-x="1024" d="M156 0l14 1417h758v-225h-496l-4 -365h492v-213h-494l-2 -389h504v-225h-772zM174 1524l223 299h228l225 -299h-186l-152 188l-152 -188h-186z"/>
<glyph unicode="Ë" horiz-adv-x="1024" d="M156 0l14 1417h758v-225h-496l-4 -365h492v-213h-494l-2 -389h504v-225h-772zM217 1552v226h225v-226h-225zM582 1552v226h225v-226h-225z"/>
<glyph unicode="Ì" horiz-adv-x="569" d="M-20 1823h276l180 -287h-170zM147 0l13 1417h262l-12 -1417h-263z"/>
<glyph unicode="Í" horiz-adv-x="569" d="M133 1536l180 287h277l-287 -287h-170zM147 0l13 1417h262l-12 -1417h-263z"/>
<glyph unicode="Î" horiz-adv-x="569" d="M-53 1524l223 299h227l226 -299h-187l-151 188l-152 -188h-186zM147 0l13 1417h262l-12 -1417h-263z"/>
<glyph unicode="Ï" horiz-adv-x="569" d="M-10 1552v226h225v-226h-225zM147 0l13 1417h262l-12 -1417h-263zM354 1552v226h226v-226h-226z"/>
<glyph unicode="Ð" horiz-adv-x="1478" d="M6 651v176h158l4 590h467q335 0 539 -192t204 -508q0 -157 -62 -293t-164 -227.5t-235 -144t-274 -52.5h-487l6 651h-156zM420 225h170q234 0 374 130.5t140 363.5q0 204 -127.5 338.5t-333.5 134.5h-215l-4 -365h410v-176h-412z"/>
<glyph unicode="Ñ" horiz-adv-x="1478" d="M156 0l12 1372l244 74l661 -1086h4l-16 1057h262l-12 -1372l-264 -74l-646 1080l-4 -4l21 -1047h-262zM379 1542q11 54 26.5 93.5t41.5 74t66.5 52.5t94.5 18q40 0 150 -39q109 -37 141 -37q63 0 88 92h113q-23 -112 -74.5 -174.5t-155.5 -62.5q-41 0 -149 38 q-109 37 -141 37q-63 0 -88 -92h-113z"/>
<glyph unicode="Ò" horiz-adv-x="1703" d="M92 709q0 203 101.5 373t276 267t382.5 97q169 0 312 -57t240.5 -156t152.5 -234.5t55 -289.5q0 -153 -58.5 -289.5t-159.5 -235t-242 -156t-300 -57.5q-213 0 -386.5 94t-273.5 263.5t-100 380.5zM367 709q0 -233 133.5 -379t351.5 -146q142 0 254.5 73t171.5 192 t59 260q0 229 -134 376.5t-351 147.5q-90 0 -176.5 -36t-155.5 -101.5t-111 -166.5t-42 -220zM547 1823h276l181 -287h-170z"/>
<glyph unicode="Ó" horiz-adv-x="1703" d="M92 709q0 203 101.5 373t276 267t382.5 97q169 0 312 -57t240.5 -156t152.5 -234.5t55 -289.5q0 -153 -58.5 -289.5t-159.5 -235t-242 -156t-300 -57.5q-213 0 -386.5 94t-273.5 263.5t-100 380.5zM367 709q0 -233 133.5 -379t351.5 -146q142 0 254.5 73t171.5 192 t59 260q0 229 -134 376.5t-351 147.5q-90 0 -176.5 -36t-155.5 -101.5t-111 -166.5t-42 -220zM700 1536l181 287h276l-287 -287h-170z"/>
<glyph unicode="Ô" horiz-adv-x="1703" d="M92 709q0 203 101.5 373t276 267t382.5 97q169 0 312 -57t240.5 -156t152.5 -234.5t55 -289.5q0 -153 -58.5 -289.5t-159.5 -235t-242 -156t-300 -57.5q-213 0 -386.5 94t-273.5 263.5t-100 380.5zM367 709q0 -233 133.5 -379t351.5 -146q142 0 254.5 73t171.5 192 t59 260q0 229 -134 376.5t-351 147.5q-90 0 -176.5 -36t-155.5 -101.5t-111 -166.5t-42 -220zM514 1524l223 299h228l225 -299h-186l-152 188l-152 -188h-186z"/>
<glyph unicode="Õ" horiz-adv-x="1703" d="M92 709q0 203 101.5 373t276 267t382.5 97q169 0 312 -57t240.5 -156t152.5 -234.5t55 -289.5q0 -153 -58.5 -289.5t-159.5 -235t-242 -156t-300 -57.5q-213 0 -386.5 94t-273.5 263.5t-100 380.5zM367 709q0 -233 133.5 -379t351.5 -146q142 0 254.5 73t171.5 192 t59 260q0 229 -134 376.5t-351 147.5q-90 0 -176.5 -36t-155.5 -101.5t-111 -166.5t-42 -220zM492 1542q11 54 26.5 93.5t41.5 74t66.5 52.5t94.5 18q39 0 149 -39q109 -37 142 -37q63 0 88 92h112q-23 -112 -74 -174.5t-155 -62.5q-41 0 -149 38q-109 37 -142 37 q-63 0 -88 -92h-112z"/>
<glyph unicode="Ö" horiz-adv-x="1703" d="M92 709q0 203 101.5 373t276 267t382.5 97q169 0 312 -57t240.5 -156t152.5 -234.5t55 -289.5q0 -153 -58.5 -289.5t-159.5 -235t-242 -156t-300 -57.5q-213 0 -386.5 94t-273.5 263.5t-100 380.5zM367 709q0 -233 133.5 -379t351.5 -146q142 0 254.5 73t171.5 192 t59 260q0 229 -134 376.5t-351 147.5q-90 0 -176.5 -36t-155.5 -101.5t-111 -166.5t-42 -220zM557 1552v226h225v-226h-225zM922 1552v226h225v-226h-225z"/>
<glyph unicode="×" horiz-adv-x="1228" d="M135 186l332 332l-332 332l148 147l331 -331l332 331l148 -147l-334 -332l334 -332l-148 -147l-332 334l-331 -334z"/>
<glyph unicode="Ø" horiz-adv-x="1703" d="M92 709q0 203 101.5 373t276 267t382.5 97q274 0 465 -139l178 194l88 -80l-176 -192q99 -100 152 -233.5t53 -286.5t-58.5 -289.5t-159.5 -235t-242 -156t-300 -57.5q-264 0 -463 144l-180 -199l-86 80l176 194q-99 100 -153 232.5t-54 286.5zM367 709q0 -204 100 -334 l688 753q-124 105 -303 105q-90 0 -176.5 -36t-155.5 -101.5t-111 -166.5t-42 -220zM547 287q122 -103 305 -103q142 0 254.5 73t171.5 192t59 260q0 198 -100 331z"/>
<glyph unicode="Ù" horiz-adv-x="1478" d="M160 526q0 170 3.5 481t4.5 410h262q-1 -100 -4.5 -416.5t-3.5 -488.5q0 -145 89 -230t224 -85q151 0 233.5 90t84.5 239l8 891h262l-8 -905q-3 -255 -163.5 -398t-420.5 -143t-415.5 143.5t-155.5 411.5zM434 1823h277l180 -287h-170z"/>
<glyph unicode="Ú" horiz-adv-x="1478" d="M160 526q0 170 3.5 481t4.5 410h262q-1 -100 -4.5 -416.5t-3.5 -488.5q0 -145 89 -230t224 -85q151 0 233.5 90t84.5 239l8 891h262l-8 -905q-3 -255 -163.5 -398t-420.5 -143t-415.5 143.5t-155.5 411.5zM588 1536l180 287h276l-286 -287h-170z"/>
<glyph unicode="Û" horiz-adv-x="1478" d="M160 526q0 170 3.5 481t4.5 410h262q-1 -100 -4.5 -416.5t-3.5 -488.5q0 -145 89 -230t224 -85q151 0 233.5 90t84.5 239l8 891h262l-8 -905q-3 -255 -163.5 -398t-420.5 -143t-415.5 143.5t-155.5 411.5zM401 1524l224 299h227l225 -299h-186l-152 188l-151 -188h-187z "/>
<glyph unicode="Ü" horiz-adv-x="1478" d="M160 526q0 170 3.5 481t4.5 410h262q-1 -100 -4.5 -416.5t-3.5 -488.5q0 -145 89 -230t224 -85q151 0 233.5 90t84.5 239l8 891h262l-8 -905q-3 -255 -163.5 -398t-420.5 -143t-415.5 143.5t-155.5 411.5zM444 1552v226h226v-226h-226zM809 1552v226h225v-226h-225z"/>
<glyph unicode="Ý" horiz-adv-x="1251" d="M12 1311l240 135l371 -606l385 606l231 -133l-483 -717l-8 -596h-275l8 588zM475 1536l180 287h277l-287 -287h-170z"/>
<glyph unicode="Þ" d="M156 0l12 1417h262l-2 -227h178q237 0 358 -114.5t121 -317.5q0 -106 -42 -189.5t-114 -135t-163.5 -78.5t-196.5 -27h-149l-2 -328h-262zM424 541h137q108 0 179 60.5t71 158.5q0 28 -6.5 56t-23.5 57.5t-43 52t-69 37t-98 14.5h-143z"/>
<glyph unicode="ß" d="M135 0l17 1079q3 217 122.5 337t317.5 120q154 0 251 -83.5t97 -197.5q0 -61 -27.5 -124.5t-60.5 -105t-60.5 -82.5t-27.5 -62q0 -13 32.5 -45t79 -78.5t92.5 -103.5t78.5 -135.5t32.5 -158.5q0 -94 -36.5 -169t-99 -122.5t-143 -72.5t-171.5 -25q-2 0 -125 6l20 187 q62 -4 94 -4q91 0 157.5 50t66.5 138q0 49 -32.5 106t-79 109t-93 101.5t-79 98t-32.5 83.5q0 36 27.5 86t60.5 93t60.5 97t27.5 97q0 57 -34.5 93t-89.5 36q-173 0 -177 -269l-16 -1079h-250z"/>
<glyph unicode="à" horiz-adv-x="1024" d="M63 272q0 53 14.5 97t52 88t99 79t159 66t228.5 53v68q0 80 -29.5 108.5t-88.5 28.5q-43 0 -102 -28.5t-167 -112.5l-118 133q155 127 254 168t196 41q124 0 209.5 -77t85.5 -220q0 -59 -2 -86l-8 -297q-4 -94 -4 -129q0 -41 17 -69.5t38 -28.5q18 0 74 26l59 -125 q-127 -84 -215 -84q-67 0 -116 37t-62 101q-119 -138 -264 -138q-139 0 -224.5 82t-85.5 219zM207 1462h276l181 -286h-170zM301 281q0 -56 36 -88.5t95 -32.5q40 0 87.5 25t90.5 71l4 240q-176 -39 -244.5 -87.5t-68.5 -127.5z"/>
<glyph unicode="á" horiz-adv-x="1024" d="M63 272q0 53 14.5 97t52 88t99 79t159 66t228.5 53v68q0 80 -29.5 108.5t-88.5 28.5q-43 0 -102 -28.5t-167 -112.5l-118 133q155 127 254 168t196 41q124 0 209.5 -77t85.5 -220q0 -59 -2 -86l-8 -297q-4 -94 -4 -129q0 -41 17 -69.5t38 -28.5q18 0 74 26l59 -125 q-127 -84 -215 -84q-67 0 -116 37t-62 101q-119 -138 -264 -138q-139 0 -224.5 82t-85.5 219zM301 281q0 -56 36 -88.5t95 -32.5q40 0 87.5 25t90.5 71l4 240q-176 -39 -244.5 -87.5t-68.5 -127.5zM360 1176l181 286h276l-287 -286h-170z"/>
<glyph unicode="â" horiz-adv-x="1024" d="M63 272q0 53 14.5 97t52 88t99 79t159 66t228.5 53v68q0 80 -29.5 108.5t-88.5 28.5q-43 0 -102 -28.5t-167 -112.5l-118 133q155 127 254 168t196 41q124 0 209.5 -77t85.5 -220q0 -59 -2 -86l-8 -297q-4 -94 -4 -129q0 -41 17 -69.5t38 -28.5q18 0 74 26l59 -125 q-127 -84 -215 -84q-67 0 -116 37t-62 101q-119 -138 -264 -138q-139 0 -224.5 82t-85.5 219zM174 1163l223 299h228l225 -299h-186l-152 189l-152 -189h-186zM301 281q0 -56 36 -88.5t95 -32.5q40 0 87.5 25t90.5 71l4 240q-176 -39 -244.5 -87.5t-68.5 -127.5z"/>
<glyph unicode="ã" horiz-adv-x="1024" d="M63 272q0 53 14.5 97t52 88t99 79t159 66t228.5 53v68q0 80 -29.5 108.5t-88.5 28.5q-43 0 -102 -28.5t-167 -112.5l-118 133q155 127 254 168t196 41q124 0 209.5 -77t85.5 -220q0 -59 -2 -86l-8 -297q-4 -94 -4 -129q0 -41 17 -69.5t38 -28.5q18 0 74 26l59 -125 q-127 -84 -215 -84q-67 0 -116 37t-62 101q-119 -138 -264 -138q-139 0 -224.5 82t-85.5 219zM152 1182q23 112 74 174.5t155 62.5q39 0 149 -39q109 -37 142 -37q63 0 88 93h112q-11 -54 -26.5 -93.5t-41.5 -74t-66.5 -52.5t-94.5 -18q-39 0 -149 39q-109 37 -142 37 q-63 0 -88 -92h-112zM301 281q0 -56 36 -88.5t95 -32.5q40 0 87.5 25t90.5 71l4 240q-176 -39 -244.5 -87.5t-68.5 -127.5z"/>
<glyph unicode="ä" horiz-adv-x="1024" d="M63 272q0 53 14.5 97t52 88t99 79t159 66t228.5 53v68q0 80 -29.5 108.5t-88.5 28.5q-43 0 -102 -28.5t-167 -112.5l-118 133q155 127 254 168t196 41q124 0 209.5 -77t85.5 -220q0 -59 -2 -86l-8 -297q-4 -94 -4 -129q0 -41 17 -69.5t38 -28.5q18 0 74 26l59 -125 q-127 -84 -215 -84q-67 0 -116 37t-62 101q-119 -138 -264 -138q-139 0 -224.5 82t-85.5 219zM217 1192v225h225v-225h-225zM301 281q0 -56 36 -88.5t95 -32.5q40 0 87.5 25t90.5 71l4 240q-176 -39 -244.5 -87.5t-68.5 -127.5zM582 1192v225h225v-225h-225z"/>
<glyph unicode="å" horiz-adv-x="1024" d="M63 272q0 53 14.5 97t52 88t99 79t159 66t228.5 53v68q0 80 -29.5 108.5t-88.5 28.5q-43 0 -102 -28.5t-167 -112.5l-118 133q155 127 254 168t196 41q124 0 209.5 -77t85.5 -220q0 -59 -2 -86l-8 -297q-4 -94 -4 -129q0 -41 17 -69.5t38 -28.5q18 0 74 26l59 -125 q-127 -84 -215 -84q-67 0 -116 37t-62 101q-119 -138 -264 -138q-139 0 -224.5 82t-85.5 219zM301 281q0 -56 36 -88.5t95 -32.5q40 0 87.5 25t90.5 71l4 240q-176 -39 -244.5 -87.5t-68.5 -127.5zM301 1341q0 86 62.5 148.5t148.5 62.5q85 0 148 -62.5t63 -148.5 q0 -85 -63 -148t-148 -63q-86 0 -148.5 63t-62.5 148zM412 1341q0 -41 29.5 -70.5t70.5 -29.5t70.5 29.5t29.5 70.5t-29.5 71t-70.5 30t-70.5 -30t-29.5 -71z"/>
<glyph unicode="æ" horiz-adv-x="1593" d="M63 258q0 58 20 108.5t52.5 86.5t79.5 66.5t95 50.5t106.5 35.5t106 24.5t100.5 15v74q0 67 -30.5 104t-82.5 37q-44 0 -103.5 -26.5t-173.5 -106.5l-110 139q263 195 438 195q83 0 146.5 -37t91.5 -111q128 148 291 148q215 0 321.5 -149.5t106.5 -426.5h-672 q1 -56 14.5 -109t41 -100t75.5 -75.5t110 -28.5q111 0 234 133l143 -131q-183 -203 -420 -203q-107 0 -184.5 40.5t-148.5 131.5q-75 -81 -168.5 -126.5t-184.5 -45.5q-128 0 -211.5 79.5t-83.5 207.5zM301 272q0 -54 36.5 -89.5t88.5 -35.5q43 0 101.5 30t121.5 99 q-28 92 -28 203q-155 -21 -237.5 -76t-82.5 -131zM854 662h426q-2 93 -54.5 151.5t-135.5 58.5q-87 0 -143.5 -51.5t-92.5 -158.5z"/>
<glyph unicode="ç" horiz-adv-x="909" d="M76 500q0 145 56 271.5t168.5 208t260.5 81.5q204 0 361 -174l-142 -137q-41 34 -64.5 50t-63.5 32t-81 16q-74 0 -128.5 -49.5t-79.5 -122t-25 -154.5q0 -158 62 -248t159 -90q62 0 110 30t101 85l139 -131q-160 -197 -385 -197q-86 0 -159.5 31t-126 83t-89.5 120.5 t-55 143.5t-18 151zM250 -410l39 78q5 -2 24 -8.5t28 -9.5t24.5 -7t28.5 -6t26 -2q125 0 125 89q0 40 -29 57.5t-72 17.5q-42 0 -73 -14l-45 35l114 180h101l-70 -119l4 -4q24 8 45 8q77 0 133 -40t56 -113q0 -65 -37.5 -110.5t-92 -65t-118.5 -19.5q-90 0 -211 53z"/>
<glyph unicode="è" horiz-adv-x="1024" d="M76 512q0 104 32 201.5t90 175.5t149 125t200 47q214 0 320 -150t106 -426h-647q1 -56 14.5 -109t40 -100t73.5 -75.5t109 -28.5q117 0 240 133l143 -131q-183 -203 -420 -203q-198 0 -324 150t-126 391zM207 1462h276l181 -286h-170zM338 662h397q-5 94 -51 158.5 t-137 64.5q-80 0 -140.5 -70.5t-68.5 -152.5z"/>
<glyph unicode="é" horiz-adv-x="1024" d="M76 512q0 104 32 201.5t90 175.5t149 125t200 47q214 0 320 -150t106 -426h-647q1 -56 14.5 -109t40 -100t73.5 -75.5t109 -28.5q117 0 240 133l143 -131q-183 -203 -420 -203q-198 0 -324 150t-126 391zM338 662h397q-5 94 -51 158.5t-137 64.5q-80 0 -140.5 -70.5 t-68.5 -152.5zM360 1176l181 286h276l-287 -286h-170z"/>
<glyph unicode="ê" horiz-adv-x="1024" d="M76 512q0 104 32 201.5t90 175.5t149 125t200 47q214 0 320 -150t106 -426h-647q1 -56 14.5 -109t40 -100t73.5 -75.5t109 -28.5q117 0 240 133l143 -131q-183 -203 -420 -203q-198 0 -324 150t-126 391zM174 1163l223 299h228l225 -299h-186l-152 189l-152 -189h-186z M338 662h397q-5 94 -51 158.5t-137 64.5q-80 0 -140.5 -70.5t-68.5 -152.5z"/>
<glyph unicode="ë" horiz-adv-x="1024" d="M76 512q0 104 32 201.5t90 175.5t149 125t200 47q214 0 320 -150t106 -426h-647q1 -56 14.5 -109t40 -100t73.5 -75.5t109 -28.5q117 0 240 133l143 -131q-183 -203 -420 -203q-198 0 -324 150t-126 391zM217 1192v225h225v-225h-225zM338 662h397q-5 94 -51 158.5 t-137 64.5q-80 0 -140.5 -70.5t-68.5 -152.5zM582 1192v225h225v-225h-225z"/>
<glyph unicode="ì" horiz-adv-x="569" d="M-20 1462h276l180 -286h-170zM154 0l10 1032h250l-11 -1032h-249z"/>
<glyph unicode="í" horiz-adv-x="569" d="M133 1176l180 286h277l-287 -286h-170zM154 0l10 1032h250l-11 -1032h-249z"/>
<glyph unicode="î" horiz-adv-x="569" d="M-53 1163l223 299h227l226 -299h-187l-151 189l-152 -189h-186zM154 0l10 1032h250l-11 -1032h-249z"/>
<glyph unicode="ï" horiz-adv-x="569" d="M-10 1192v225h225v-225h-225zM154 0l10 1032h250l-11 -1032h-249zM354 1192v225h226v-225h-226z"/>
<glyph unicode="ð" d="M76 514q0 126 42 232t109.5 173.5t149 104.5t164.5 37q123 0 196 -64h4q-48 145 -168 265l-254 -146l-75 113l217 125q-108 79 -219 102l123 162q178 -40 309 -141l246 141l81 -109l-221 -127q139 -147 211 -352.5t72 -427.5q0 -300 -128 -465.5t-366 -165.5 q-122 0 -218 43.5t-155 118.5t-89.5 172t-30.5 209zM326 506q0 -52 12.5 -106t38.5 -107t76 -87t116 -34q64 0 113.5 31.5t76.5 82.5t40.5 107t13.5 113q0 167 -61 260.5t-183 93.5q-66 0 -116 -34.5t-76 -90t-38.5 -113t-12.5 -116.5z"/>
<glyph unicode="ñ" d="M135 0l10 1032h246v-125h4q63 71 149 112.5t185 41.5q78 0 134 -25.5t85.5 -71t42.5 -98t13 -116.5q0 -56 -1.5 -130t-1.5 -102l-6 -518h-250l3 258q4 320 4 406q0 96 -29.5 134t-106.5 38q-87 0 -227 -136l-4 -700h-250zM209 1182q23 112 74 174.5t155 62.5 q40 0 150 -39q109 -37 141 -37q63 0 88 93h113q-23 -112 -74.5 -175t-155.5 -63q-38 0 -149 39q-109 37 -141 37q-63 0 -88 -92h-113z"/>
<glyph unicode="ò" d="M76 516q0 102 35 200t97 174.5t156.5 123.5t204.5 47q159 0 272.5 -73.5t167.5 -194.5t54 -277q0 -148 -57.5 -271t-171.5 -198.5t-265 -75.5q-122 0 -218 43.5t-155 119.5t-89.5 173t-30.5 209zM264 1462h277l180 -286h-170zM326 508q0 -40 7 -83t25 -89t44.5 -82 t70 -59t96.5 -23q64 0 113.5 32t76.5 83t40.5 107.5t13.5 113.5q0 166 -60.5 259t-183.5 93q-53 0 -96 -23t-70 -59.5t-45 -84t-25 -93.5t-7 -92z"/>
<glyph unicode="ó" d="M76 516q0 102 35 200t97 174.5t156.5 123.5t204.5 47q159 0 272.5 -73.5t167.5 -194.5t54 -277q0 -148 -57.5 -271t-171.5 -198.5t-265 -75.5q-122 0 -218 43.5t-155 119.5t-89.5 173t-30.5 209zM326 508q0 -40 7 -83t25 -89t44.5 -82t70 -59t96.5 -23q64 0 113.5 32 t76.5 83t40.5 107.5t13.5 113.5q0 166 -60.5 259t-183.5 93q-53 0 -96 -23t-70 -59.5t-45 -84t-25 -93.5t-7 -92zM418 1176l180 286h276l-286 -286h-170z"/>
<glyph unicode="ô" d="M76 516q0 102 35 200t97 174.5t156.5 123.5t204.5 47q159 0 272.5 -73.5t167.5 -194.5t54 -277q0 -148 -57.5 -271t-171.5 -198.5t-265 -75.5q-122 0 -218 43.5t-155 119.5t-89.5 173t-30.5 209zM231 1163l224 299h227l225 -299h-186l-152 189l-151 -189h-187zM326 508 q0 -40 7 -83t25 -89t44.5 -82t70 -59t96.5 -23q64 0 113.5 32t76.5 83t40.5 107.5t13.5 113.5q0 166 -60.5 259t-183.5 93q-53 0 -96 -23t-70 -59.5t-45 -84t-25 -93.5t-7 -92z"/>
<glyph unicode="õ" d="M76 516q0 102 35 200t97 174.5t156.5 123.5t204.5 47q159 0 272.5 -73.5t167.5 -194.5t54 -277q0 -148 -57.5 -271t-171.5 -198.5t-265 -75.5q-122 0 -218 43.5t-155 119.5t-89.5 173t-30.5 209zM209 1182q23 112 74 174.5t155 62.5q40 0 150 -39q109 -37 141 -37 q63 0 88 93h113q-23 -112 -74.5 -175t-155.5 -63q-38 0 -149 39q-109 37 -141 37q-63 0 -88 -92h-113zM326 508q0 -40 7 -83t25 -89t44.5 -82t70 -59t96.5 -23q64 0 113.5 32t76.5 83t40.5 107.5t13.5 113.5q0 166 -60.5 259t-183.5 93q-53 0 -96 -23t-70 -59.5t-45 -84 t-25 -93.5t-7 -92z"/>
<glyph unicode="ö" d="M76 516q0 102 35 200t97 174.5t156.5 123.5t204.5 47q159 0 272.5 -73.5t167.5 -194.5t54 -277q0 -148 -57.5 -271t-171.5 -198.5t-265 -75.5q-122 0 -218 43.5t-155 119.5t-89.5 173t-30.5 209zM274 1192v225h226v-225h-226zM326 508q0 -40 7 -83t25 -89t44.5 -82 t70 -59t96.5 -23q64 0 113.5 32t76.5 83t40.5 107.5t13.5 113.5q0 166 -60.5 259t-183.5 93q-53 0 -96 -23t-70 -59.5t-45 -84t-25 -93.5t-7 -92zM639 1192v225h225v-225h-225z"/>
<glyph unicode="÷" horiz-adv-x="1228" d="M96 412v213h1037v-213h-1037zM442 94q0 70 51 121t121 51t121 -51t51 -121t-51 -121t-121 -51t-121 51t-51 121zM442 942q0 70 51 121t121 51t121 -51t51 -121t-51 -121t-121 -51t-121 51t-51 121z"/>
<glyph unicode="ø" d="M57 -23l136 164q-117 143 -117 375q0 102 35 200t97 174.5t156.5 123.5t204.5 47q182 0 303 -94l129 155l80 -65l-135 -164q117 -147 117 -377q0 -148 -57.5 -271t-171.5 -198.5t-265 -75.5q-182 0 -303 97l-129 -156zM326 508q0 -96 30 -168l375 455q-59 65 -162 65 q-53 0 -96 -23t-70 -59.5t-45 -84t-25 -93.5t-7 -92zM412 246q60 -74 157 -74q64 0 113.5 32t76.5 83t40.5 107.5t13.5 113.5q0 113 -29 190z"/>
<glyph unicode="ù" d="M137 322q0 31 1 95t1 97l6 518h250l-2 -258q-4 -300 -4 -407q0 -93 29.5 -131.5t105.5 -38.5q89 0 228 135l4 700h250l-9 -1032h-249v125h-5q-61 -70 -144.5 -112t-174.5 -42q-83 0 -140.5 26t-88.5 75t-44.5 109.5t-13.5 140.5zM264 1462h277l180 -286h-170z"/>
<glyph unicode="ú" d="M137 322q0 31 1 95t1 97l6 518h250l-2 -258q-4 -300 -4 -407q0 -93 29.5 -131.5t105.5 -38.5q89 0 228 135l4 700h250l-9 -1032h-249v125h-5q-61 -70 -144.5 -112t-174.5 -42q-83 0 -140.5 26t-88.5 75t-44.5 109.5t-13.5 140.5zM418 1176l180 286h276l-286 -286h-170z "/>
<glyph unicode="û" d="M137 322q0 31 1 95t1 97l6 518h250l-2 -258q-4 -300 -4 -407q0 -93 29.5 -131.5t105.5 -38.5q89 0 228 135l4 700h250l-9 -1032h-249v125h-5q-61 -70 -144.5 -112t-174.5 -42q-83 0 -140.5 26t-88.5 75t-44.5 109.5t-13.5 140.5zM231 1163l224 299h227l225 -299h-186 l-152 189l-151 -189h-187z"/>
<glyph unicode="ü" d="M137 322q0 31 1 95t1 97l6 518h250l-2 -258q-4 -300 -4 -407q0 -93 29.5 -131.5t105.5 -38.5q89 0 228 135l4 700h250l-9 -1032h-249v125h-5q-61 -70 -144.5 -112t-174.5 -42q-83 0 -140.5 26t-88.5 75t-44.5 109.5t-13.5 140.5zM274 1192v225h226v-225h-226zM639 1192 v225h225v-225h-225z"/>
<glyph unicode="ý" horiz-adv-x="1024" d="M20 989l250 72l224 -750h4l268 750l238 -72l-447 -1118q-38 -96 -76.5 -159.5t-92.5 -113t-127 -72t-171 -22.5h-47v201h37q150 0 215 137l74 158zM360 1176l181 286h276l-287 -286h-170z"/>
<glyph unicode="þ" d="M115 -496l6 2032h239v-616h5q39 60 109.5 98.5t150.5 38.5q193 0 315.5 -148t122.5 -379q0 -84 -18.5 -164.5t-57 -151.5t-91.5 -124t-127.5 -84t-160.5 -31q-157 0 -233 99h-4l-6 -570h-250zM375 283q77 -95 178 -95q102 0 181 91t79 239q0 143 -71 234.5t-183 91.5 q-58 0 -116 -49t-68 -113v-399z"/>
<glyph unicode="ÿ" horiz-adv-x="1024" d="M20 989l250 72l224 -750h4l268 750l238 -72l-447 -1118q-38 -96 -76.5 -159.5t-92.5 -113t-127 -72t-171 -22.5h-47v201h37q150 0 215 137l74 158zM217 1192v225h225v-225h-225zM582 1192v225h225v-225h-225z"/>
<glyph unicode="Œ" horiz-adv-x="2048" d="M111 725q0 152 54.5 287t146 229.5t214 149.5t256.5 55q138 0 254 -54.5t191 -160.5h4v186h706v-225h-454l-4 -365h450v-213h-454l-5 -389h467v-225h-720l2 180l-5 4q-75 -110 -192 -161.5t-231 -51.5q-211 0 -366 95.5t-234.5 265.5t-79.5 393zM373 702q0 -79 16 -153.5 t50 -141t83 -116t119.5 -78.5t155.5 -29q80 0 150 30t119.5 81t85.5 118t53.5 141.5t17.5 150.5q0 240 -111.5 378t-290.5 138q-109 0 -196 -42.5t-141 -115t-82.5 -164.5t-28.5 -197z"/>
<glyph unicode="œ" horiz-adv-x="1820" d="M76 516q0 102 35 200t97 174.5t156.5 123.5t204.5 47q135 0 229.5 -49t168.5 -160q125 209 352 209q214 0 320 -150t106 -428h-670q1 -55 14.5 -107.5t40.5 -99.5t74.5 -75.5t108.5 -28.5q116 0 239 133l144 -131q-183 -203 -420 -203q-212 3 -336 189q-67 -91 -162 -140 t-209 -49q-122 0 -218 43.5t-155 119.5t-89.5 173t-30.5 209zM326 506q0 -52 12.5 -106t38.5 -107t76 -87t116 -34q68 0 121.5 31.5t84.5 83t47 111t16 122.5q0 48 -7.5 93t-27 91t-49 80t-77.5 55t-108 21q-66 0 -116 -34.5t-76 -90t-38.5 -113t-12.5 -116.5zM1090 659h417 q-11 213 -182 213q-95 0 -156 -59t-79 -154z"/>
<glyph unicode="Ÿ" horiz-adv-x="1251" d="M12 1311l240 135l371 -606l385 606l231 -133l-483 -717l-8 -596h-275l8 588zM332 1552v226h225v-226h-225zM696 1552v226h226v-226h-226z"/>
<glyph unicode="ˆ" horiz-adv-x="569" d="M-53 1163l223 299h227l226 -299h-187l-151 189l-152 -189h-186z"/>
<glyph unicode="˜" horiz-adv-x="569" d="M-76 1182q23 112 74.5 174.5t155.5 62.5q39 0 149 -39q109 -37 141 -37q63 0 88 93h113q-11 -54 -26.5 -93.5t-41.5 -74t-66.5 -52.5t-94.5 -18q-40 0 -150 39q-109 37 -141 37q-63 0 -88 -92h-113z"/>
<glyph unicode=" " horiz-adv-x="940"/>
<glyph unicode=" " horiz-adv-x="1880"/>
<glyph unicode=" " horiz-adv-x="940"/>
<glyph unicode=" " horiz-adv-x="1880"/>
<glyph unicode=" " horiz-adv-x="626"/>
<glyph unicode=" " horiz-adv-x="470"/>
<glyph unicode=" " horiz-adv-x="313"/>
<glyph unicode=" " horiz-adv-x="313"/>
<glyph unicode=" " horiz-adv-x="235"/>
<glyph unicode=" " horiz-adv-x="376"/>
<glyph unicode=" " horiz-adv-x="104"/>
<glyph unicode="‐" horiz-adv-x="796" d="M129 406v225h539v-225h-539z"/>
<glyph unicode="‑" horiz-adv-x="796" d="M129 406v225h539v-225h-539z"/>
<glyph unicode="‒" horiz-adv-x="796" d="M129 406v225h539v-225h-539z"/>
<glyph unicode="–" horiz-adv-x="1024" d="M0 418v200h1024v-200h-1024z"/>
<glyph unicode="—" horiz-adv-x="2048" d="M0 418v200h2048v-200h-2048z"/>
<glyph unicode="‘" horiz-adv-x="569" d="M92 897l182 520h134l-13 -520h-303z"/>
<glyph unicode="’" horiz-adv-x="569" d="M162 897l12 520h303l-182 -520h-133z"/>
<glyph unicode="‚" horiz-adv-x="569" d="M150 -246l12 520h303l-182 -520h-133z"/>
<glyph unicode="“" d="M176 897l182 520h134l-13 -520h-303zM565 897l183 520h133l-13 -520h-303z"/>
<glyph unicode="”" d="M258 897l12 520h303l-182 -520h-133zM647 897l12 520h304l-183 -520h-133z"/>
<glyph unicode="„" d="M246 -246l12 520h303l-182 -520h-133zM635 -246l12 520h303l-182 -520h-133z"/>
<glyph unicode="•" horiz-adv-x="1024" d="M154 709q-1 148 103 251t255 103q149 0 253.5 -103t104.5 -251t-104.5 -251.5t-253.5 -103.5q-150 0 -254 103t-104 252z"/>
<glyph unicode="…" horiz-adv-x="2048" d="M205 0v274h274v-274h-274zM887 0v274h274v-274h-274zM1569 0v274h274v-274h-274z"/>
<glyph unicode=" " horiz-adv-x="376"/>
<glyph unicode="‹" horiz-adv-x="681" d="M111 518l333 408l115 -86l-211 -322l223 -328l-112 -79z"/>
<glyph unicode="›" horiz-adv-x="681" d="M111 190l223 328l-211 322l115 86l333 -408l-348 -407z"/>
<glyph unicode=" " horiz-adv-x="470"/>
<glyph unicode="€" d="M39 457l65 182h80q-2 16 -2 63q0 42 2 58h-145l65 182h99q38 224 168.5 349.5t359.5 125.5q105 0 192 -22.5t128 -51.5v-233q-98 90 -289 90q-273 0 -318 -258h541l-65 -182h-500q-2 -14 -2 -55q0 -50 2 -66h454l-63 -182h-367q23 -132 104 -200.5t216 -68.5 q182 0 287 93v-238q-36 -26 -120.5 -48t-199.5 -22q-216 0 -351.5 119.5t-174.5 364.5h-166z"/>
<glyph unicode="™" horiz-adv-x="2048" d="M25 1257v160h692v-160h-240v-690h-213v690h-239zM885 567v850h293l202 -532l201 532h293v-850h-201v604h-4l-215 -604h-149l-215 604h-5v-604h-200z"/>
<glyph unicode="" horiz-adv-x="1085" d="M0 0v1085h1085v-1085h-1085z"/>
<glyph unicode="ﬁ" horiz-adv-x="1251" d="M45 844v188h164v133q0 173 102 280t287 107h80v-200h-57q-73 0 -115.5 -43t-42.5 -135v-142h633l-11 -1032h-249l10 844h-389v-844h-252l4 844h-164zM846 1176l2 241h250l-2 -241h-250z"/>
<glyph unicode="ﬂ" horiz-adv-x="1251" d="M45 844v188h164v133q0 173 102 280t287 107h80v-200h-57q-73 0 -115.5 -43t-42.5 -135v-142h213v-188h-219v-844h-252l4 844h-164zM836 0l12 1536h250l-13 -1536h-249z"/>
</font>
</defs>
</svg>
